{"title":"Under The Skin 2013 HDRIP x264 AC3 TiTAN","uid":10418932,"size":1248741343,"categoryP":"video","categoryS":"movies","magnet":"?xt=urn:btih:9a1cb7ca1bb69eb8643c7d8aac616d3eb0c1e805&amp;dn=Under+The+Skin+2013+HDRIP+x264+AC3+TiTAN&amp;tr=udp%3A%2F%2Ftracker.openbittorrent.com%3A80&amp;tr=udp%3A%2F%2Fopen.demonii.com%3A1337&amp;tr=udp%3A%2F%2Ftracker.coppersurfer.tk%3A6969&amp;tr=udp%3A%2F%2Fexodus.desync.com%3A6969","seeders":3,"leechers":0,"uploader":"xxxlavalxxx","files":3,"time":1403624071,"description":"[IMG]http://i.imgur.com/2t6DGOK.jpg[/IMG]\n\n &lt;a href=&quot;\nhttp://www.imdb.com/title/tt1441395/&quot; rel=&quot;nofollow&quot; target=&quot;_NEW&quot;&gt;\nhttp://www.imdb.com/title/tt1441395/&lt;/a&gt;\n\n\nA mysterious seductress preys upon the population of Scotland.\n\nDirector: Jonathan Glazer\nWriters: Walter Campbell (screenplay), Michel Faber (novel)\nStars: Scarlett Johansson, Jeremy McWilliams, Lynsey Taylor Mackay\nGenres: Drama | Sci-Fi | Thriller\nCountry: UK | USA | Switzerland\nLanguage: English\n\n\nSource: Itunes\n\nGeneral\n\nFormat                                   : Matroska\nFormat version                           : Version 2\nFile size                                : 1.16 GiB\nDuration                                 : 1h 48mn\nOverall bit rate mode                    : Variable\nOverall bit rate                         : 1 538 Kbps\nEncoded date                             : UTC 2014-06-24 11:46:59\nWriting application                      : mkvmerge v7.0.0 ('Where We Going') 32bit built on Jun  9 2014 15:08:34\n\n\nVideo\nID                                       : 1\nFormat                                   : AVC\nFormat/Info                              : Advanced Video Codec\nFormat profile                           : &lt;a class=&quot;__cf_email__&quot; href=&quot;/cdn-cgi/l/email-protection&quot; data-cfemail=&quot;6e260709062e225a405f&quot;&gt;[email&amp;#160;protected]&lt;/a&gt;&lt;script cf-hash='f9e31' type=&quot;text/javascript&quot;&gt;\n/* &lt;![CDATA[ */!function(){try{var t=&quot;currentScript&quot;in document?document.currentScript:function(){for(var t=document.getElementsByTagName(&quot;script&quot;),e=t.length;e--;)if(t[e].getAttribute(&quot;cf-hash&quot;))return t[e]}();if(t&amp;&amp;t.previousSibling){var e,r,n,i,c=t.previousSibling,a=c.getAttribute(&quot;data-cfemail&quot;);if(a){for(e=&quot;&quot;,r=parseInt(a.substr(0,2),16),n=2;a.length-n;n+=2)i=parseInt(a.substr(n,2),16)^r,e+=String.fromCharCode(i);e=document.createTextNode(e),c.parentNode.replaceChild(e,c)}}}catch(u){}}();/* ]]&gt; */&lt;/script&gt;\nFormat settings, CABAC                   : Yes\nFormat settings, ReFrames                : 3 frames\nCodec ID                                 : V_MPEG4/ISO/AVC\nDuration                                 : 1h 48mn\nBit rate mode                            : Variable\nBit rate                                 : 1 124 Kbps\nMaximum bit rate                         : 40.0 Mbps\nWidth                                    : 720 pixels\nHeight                                   : 384 pixels\nDisplay aspect ratio                     : 1.85:1\nFrame rate mode                          : Constant\nFrame rate                               : 23.976 fps\nColor space                              : YUV\nChroma subsampling                       : 4:2:0\nBit depth                                : 8 bits\nScan type                                : Progressive\nBits/(Pixel*Frame)                       : 0.170\nStream size                              : 870 MiB (73%)\n\n\nAudio\nID                                       : 2\nFormat                                   : AC-3\nFormat/Info                              : Audio Coding 3\nMode extension                           : CM (complete main)\nFormat settings, Endianness              : Big\nCodec ID                                 : A_AC3\nDuration                                 : 1h 48mn\nBit rate mode                            : Constant\nBit rate                                 : 384 Kbps\nChannel(s)                               : 6 channels\nChannel positions                        : Front: L C R, Side: L R, LFE\nSampling rate                            : 48.0 KHz\nBit depth                                : 16 bits\nCompression mode                         : Lossy\nStream size                              : 297 MiB (25%)\nLanguage                                 : English\nDefault                                  : Yes\nForced                                   : No\n\n\n\nscreens\n &lt;a href=&quot;\nhttp://i.imgur.com/UcSCxck.png&quot; rel=&quot;nofollow&quot; target=&quot;_NEW&quot;&gt;\nhttp://i.imgur.com/UcSCxck.png&lt;/a&gt; &lt;a href=&quot;\nhttp://i.imgur.com/GfVrgGk.png&quot; rel=&quot;nofollow&quot; target=&quot;_NEW&quot;&gt;\nhttp://i.imgur.com/GfVrgGk.png&lt;/a&gt; &lt;a href=&quot;\nhttp://i.imgur.com/ztogd4V.png&quot; rel=&quot;nofollow&quot; target=&quot;_NEW&quot;&gt;\nhttp://i.imgur.com/ztogd4V.png&lt;/a&gt; &lt;a href=&quot;\nhttp://i.imgur.com/CiAJWVD.png&quot; rel=&quot;nofollow&quot; target=&quot;_NEW&quot;&gt;\nhttp://i.imgur.com/CiAJWVD.png&lt;/a&gt;\n","torrent":{"xt":"urn:btih:9a1cb7ca1bb69eb8643c7d8aac616d3eb0c1e805","amp;dn":"Under+The+Skin+2013+HDRIP+x264+AC3+TiTAN","amp;tr":["udp%3A%2F%2Ftracker.openbittorrent.com%3A80","udp%3A%2F%2Fopen.demonii.com%3A1337","udp%3A%2F%2Ftracker.coppersurfer.tk%3A6969","udp%3A%2F%2Fexodus.desync.com%3A6969"],"infoHash":"9a1cb7ca1bb69eb8643c7d8aac616d3eb0c1e805","infoHashBuffer":{"type":"Buffer","data":[154,28,183,202,27,182,158,184,100,60,125,138,172,97,109,62,176,193,232,5]},"announce":[],"urlList":[]}}